<?xml version="1.0" standalone="no"?>
<!DOCTYPE svg PUBLIC "-//W3C//DTD SVG 20010904//EN"
 "http://www.w3.org/TR/2001/REC-SVG-20010904/DTD/svg10.dtd">
<svg version="1.0" xmlns="http://www.w3.org/2000/svg"
 width="378.000000pt" height="378.000000pt" viewBox="0 0 378.000000 378.000000"
 preserveAspectRatio="xMidYMid meet">
<metadata>
Created by potrace 1.14, written by Peter Selinger 2001-2017
</metadata>
<g transform="translate(0.000000,378.000000) scale(0.100000,-0.100000)"
fill="#000000" stroke="none">
<path d="M2080 3670 c0 -6 7 -10 15 -10 8 0 15 2 15 4 0 2 -7 6 -15 10 -8 3
-15 1 -15 -4z"/>
<path d="M945 3485 c-2 -5 -6 -27 -10 -47 -6 -41 -53 -88 -87 -88 -17 0 -18
-2 -8 -15 7 -9 16 -12 19 -8 3 4 19 15 34 23 32 16 54 52 60 96 l4 29 809 2
c445 2 1062 3 1372 3 357 0 562 4 562 10 0 13 -2751 9 -2755 -5z"/>
<path d="M787 3472 c-10 -10 -16 -32 -16 -48 2 -27 2 -27 6 -4 2 14 16 35 31
47 19 16 22 23 11 23 -9 0 -23 -8 -32 -18z"/>
<path d="M890 3454 c0 -31 -4 -37 -30 -47 -31 -12 -40 -27 -16 -27 26 0 57 35
63 73 4 24 2 37 -6 37 -6 0 -11 -16 -11 -36z"/>
<path d="M3720 3465 c0 -32 19 -73 38 -80 13 -5 12 -2 -2 14 -14 15 -17 30
-13 56 4 26 2 35 -9 35 -8 0 -14 -10 -14 -25z"/>
<path d="M846 3458 c-18 -25 -20 -38 -8 -38 10 0 35 50 28 57 -2 2 -11 -6 -20
-19z"/>
<path d="M3767 3450 c3 -11 7 -20 9 -20 2 0 4 9 4 20 0 11 -4 20 -9 20 -5 0
-7 -9 -4 -20z"/>
<path d="M456 3435 c-9 -14 -14 -25 -11 -25 8 0 45 34 45 42 0 16 -18 7 -34
-17z"/>
<path d="M117 3412 c-35 -35 -52 -66 -24 -42 40 34 53 47 66 63 25 32 -5 17
-42 -21z"/>
<path d="M242 3420 c0 -19 2 -27 5 -17 2 9 2 25 0 35 -3 9 -5 1 -5 -18z"/>
<path d="M353 3442 c-27 -4 -31 -22 -5 -22 21 0 47 16 36 22 -5 2 -19 2 -31 0z"/>
<path d="M663 3442 l-43 -3 1 -42 c1 -43 3 -42 13 4 5 21 12 26 37 27 28 1 48
8 38 15 -2 1 -23 1 -46 -1z"/>
<path d="M1735 3417 c-94 -38 -215 -108 -302 -175 -82 -63 -243 -195 -289
-238 -21 -19 -41 -34 -45 -34 -4 0 -10 -7 -13 -16 -4 -10 -2 -13 7 -7 6 4 19
8 27 10 8 1 26 15 39 30 13 15 26 27 28 25 2 -2 17 -1 33 3 18 4 27 11 24 20
-4 8 19 27 60 52 36 22 63 43 58 48 -4 4 1 5 11 2 11 -4 17 -1 17 8 0 7 9 17
20 20 11 3 27 13 35 21 9 9 15 11 15 4 0 -7 9 -9 23 -5 17 5 19 4 7 -4 -8 -6
-12 -11 -9 -11 18 0 -109 -119 -131 -123 -14 -2 1 -5 34 -6 51 -1 167 -24 189
-38 4 -2 -9 -28 -29 -56 -21 -29 -31 -47 -23 -41 8 6 33 26 57 45 l43 34 57
-22 c31 -11 66 -24 77 -29 l20 -7 -20 23 c-11 12 -35 29 -52 37 -18 7 -33 17
-33 22 0 23 181 119 340 180 47 18 90 37 95 41 6 4 31 11 57 14 35 5 46 11 41
22 -3 7 -13 14 -22 15 -10 0 -11 3 -4 6 7 2 23 -3 35 -11 26 -18 38 -20 38 -6
0 6 -6 10 -14 10 -7 0 -20 8 -27 18 -13 15 -12 16 4 3 9 -8 20 -11 24 -8 3 4
12 2 20 -5 7 -6 17 -8 20 -4 4 4 1 12 -7 17 -12 9 -12 10 3 5 13 -4 30 5 54
26 19 18 44 42 56 53 l22 20 -26 3 c-51 6 -335 -98 -436 -159 -36 -21 -37 -22
-20 -2 10 12 43 40 72 64 30 24 52 45 50 47 -6 7 -158 -69 -195 -98 -19 -15
-51 -35 -70 -46 -31 -17 -66 -51 -156 -151 -27 -31 -31 -32 -69 -23 -22 5 -59
10 -82 10 -77 0 -64 22 52 85 39 21 74 44 78 51 4 8 18 18 30 24 22 11 22 11
0 -6 -32 -23 -29 -36 5 -19 15 8 35 16 45 19 10 3 15 11 11 17 -4 8 -9 7 -16
-2 -8 -11 -9 -11 -5 1 2 8 11 14 21 12 9 -2 16 2 16 8 0 5 7 10 17 10 9 0 13
3 10 7 -4 3 1 12 11 19 18 13 42 2 42 -20 0 -6 -7 -3 -14 6 -7 10 -16 15 -19
11 -4 -3 -2 -12 5 -20 8 -11 7 -12 -6 -7 -9 3 -16 1 -16 -5 0 -6 -7 -11 -15
-11 -8 0 -15 -4 -15 -10 0 -13 17 -13 25 1 4 6 14 8 23 4 19 -7 83 52 76 70
-3 6 2 18 11 25 10 8 15 9 15 1 0 -6 -4 -11 -10 -11 -5 0 -10 -5 -10 -11 0 -8
6 -7 19 2 10 8 62 43 114 79 52 36 94 66 93 67 -5 6 -385 -134 -400 -148 -6
-5 -17 -9 -25 -9 -9 0 1 11 21 25 20 14 41 25 46 25 6 0 25 15 43 32 19 18 47
43 63 55 41 32 15 28 -79 -10z m515 -101 c0 -11 -19 -15 -25 -6 -3 5 1 10 9
10 9 0 16 -2 16 -4z m-435 -25 c9 -16 -9 -20 -23 -5 -10 12 -10 14 2 14 8 0
17 -4 21 -9z m330 -31 c3 -5 -3 -10 -15 -10 -12 0 -18 5 -15 10 3 6 10 10 15
10 5 0 12 -4 15 -10z m-55 -18 c0 -8 -59 -33 -76 -31 -5 0 9 9 31 20 47 22 45
21 45 11z m-565 -22 c-3 -5 -10 -10 -16 -10 -5 0 -9 5 -9 10 0 6 7 10 16 10 8
0 12 -4 9 -10z"/>
<path d="M290 3421 c0 -11 5 -23 10 -26 6 -3 10 -2 10 4 0 5 3 16 6 25 4 11 1
16 -10 16 -9 0 -16 -8 -16 -19z"/>
<path d="M2600 3400 c-97 -24 -337 -131 -380 -170 -59 -54 -174 -210 -215
-291 -14 -28 -4 -21 56 38 74 75 162 128 257 157 83 25 118 44 130 70 6 14 16
26 22 26 15 0 12 -14 -9 -37 -14 -15 -17 -23 -8 -32 20 -20 40 -13 33 13 -3
13 1 37 9 52 9 18 15 23 15 12 0 -9 7 -24 17 -33 13 -14 14 -18 3 -25 -12 -7
-12 -12 2 -27 22 -25 33 -83 18 -93 -8 -5 -14 -38 -16 -89 -1 -44 -6 -85 -9
-91 -3 -5 -2 -10 4 -10 5 0 14 7 18 15 5 8 9 -25 11 -80 2 -57 -1 -96 -8 -100
-5 -3 -10 -18 -10 -33 0 -23 1 -24 13 -8 11 15 13 12 14 -26 0 -33 -1 -37 -7
-18 -6 21 -8 17 -14 -25 -4 -27 -11 -59 -17 -70 -7 -15 -8 -12 -3 13 4 24 2
32 -9 32 -17 0 -31 27 -16 32 7 2 7 12 0 28 l-10 25 0 -24 -1 -25 -33 32 c-19
18 -57 41 -85 52 -59 23 -151 26 -173 8 -27 -22 -50 -68 -47 -91 3 -19 7 -15
26 21 27 50 52 63 107 52 36 -7 37 -8 9 -9 -41 -1 -46 -9 -23 -32 10 -10 19
-30 19 -44 0 -27 -31 -65 -53 -65 -19 0 -37 21 -37 43 0 39 -18 5 -24 -46 -9
-73 6 -135 41 -163 90 -73 179 -5 187 143 4 79 -6 116 -41 143 -30 23 -23 26
15 6 55 -29 90 -78 106 -146 28 -127 30 -164 7 -209 -12 -22 -26 -41 -31 -41
-6 0 -10 -16 -10 -35 0 -24 4 -33 13 -29 8 3 13 -6 15 -26 1 -17 -3 -30 -9
-30 -6 0 -9 9 -6 20 3 11 2 20 -3 20 -9 0 -25 -141 -21 -184 1 -16 -2 -26 -7
-22 -6 3 -10 -4 -9 -17 0 -12 -12 -61 -27 -110 -14 -48 -26 -91 -26 -96 0 -5
-16 -37 -35 -70 -19 -34 -30 -59 -26 -56 5 3 19 -11 30 -31 l22 -36 30 41 c39
55 100 195 127 296 13 44 27 94 32 110 5 17 10 48 11 70 1 22 6 45 10 50 4 6
4 17 -1 25 -8 12 -10 12 -10 -3 0 -10 -4 -15 -10 -12 -17 11 -11 24 14 31 19
4 25 14 29 42 2 21 0 41 -4 47 -5 5 -9 17 -9 27 0 11 -5 15 -14 12 -10 -4 -12
-17 -9 -47 3 -23 2 -39 -2 -35 -12 11 -13 69 -1 96 7 16 12 19 18 10 6 -10 8
-10 8 0 0 8 9 25 20 39 15 19 20 41 20 86 0 73 -13 67 -21 -11 l-6 -57 -2 57
c0 31 -4 63 -7 72 -4 11 -1 16 10 16 20 0 20 19 0 48 -8 12 -13 28 -11 35 3 7
6 5 6 -5 1 -10 6 -18 12 -18 7 0 10 16 8 44 -3 32 -1 42 9 39 6 -3 12 -22 12
-43 0 -21 -6 -41 -12 -44 -10 -3 -9 -8 4 -18 36 -30 19 -274 -43 -613 -7 -33
-13 -69 -15 -80 -9 -58 -43 -176 -63 -216 -48 -101 -184 -231 -306 -292 -29
-14 -90 -13 -81 2 5 7 -239 3 -261 -4 -7 -3 -12 -12 -12 -22 1 -17 2 -17 6 0
4 15 18 17 109 17 103 0 249 -24 240 -39 -3 -4 5 -7 17 -6 12 1 32 -2 45 -6
13 -5 37 -11 54 -14 17 -3 61 -18 97 -33 49 -20 66 -33 67 -47 1 -11 4 -29 7
-40 4 -11 0 -33 -9 -49 -11 -22 -12 -37 -5 -55 5 -14 12 -43 14 -63 6 -38 -8
-53 -45 -49 -20 2 -34 -21 -42 -74 l-7 -40 18 24 c47 65 48 66 71 49 12 -8 19
-18 15 -21 -3 -4 -11 1 -18 10 -9 13 -14 13 -20 3 -6 -9 -4 -11 5 -5 11 7 12
-8 6 -75 -7 -83 -7 -84 13 -66 11 10 17 24 14 32 -6 16 20 61 48 84 16 13 17
21 8 59 -5 24 -19 98 -30 165 -11 66 -25 127 -31 134 -16 18 -70 41 -151 62
-38 10 -71 21 -74 23 -2 3 -1 20 2 39 4 23 17 41 39 56 50 34 135 124 178 187
21 32 48 90 60 131 17 62 27 77 57 98 50 35 113 112 146 176 25 50 27 60 23
154 -2 59 -9 109 -17 121 -12 19 -12 19 -6 -5 3 -14 8 -66 12 -115 5 -87 4
-93 -26 -157 -31 -64 -144 -189 -158 -174 -11 11 19 64 52 91 19 14 37 35 40
46 4 11 11 17 16 14 10 -7 13 8 3 18 -9 8 -33 -16 -26 -27 3 -5 -1 -6 -8 -1
-10 6 -12 4 -6 -11 4 -10 4 -15 0 -11 -4 4 -18 -3 -31 -15 -29 -28 -30 -19 0
14 12 14 29 34 38 45 11 13 26 19 43 18 14 -2 24 1 20 6 -3 5 -10 7 -15 4 -5
-3 -6 1 -3 9 3 9 10 14 14 11 10 -6 21 21 13 29 -4 3 -15 -1 -25 -11 -10 -9
-18 -12 -19 -7 0 5 -3 18 -6 29 -3 11 -5 30 -5 43 0 15 -5 22 -13 19 -9 -4 -9
4 2 36 20 57 25 64 34 41 11 -29 10 -64 -2 -64 -5 0 -7 4 -4 10 3 5 2 17 -3
26 -6 12 -9 1 -9 -34 1 -33 5 -49 11 -45 6 4 8 3 4 -2 -14 -15 12 -35 32 -25
15 8 18 21 16 77 -3 82 -12 109 -32 92 -9 -7 -14 -8 -14 -1 0 6 5 12 11 14 18
6 -9 59 -34 66 -19 5 -17 7 13 13 39 8 52 3 30 -11 -13 -8 -12 -10 3 -10 19 0
23 -16 5 -22 -7 -3 -8 -9 -3 -18 6 -10 10 -8 17 9 10 29 -16 87 -42 94 -18 5
-18 7 -1 78 45 181 53 231 47 270 -4 27 -3 38 4 34 6 -4 10 5 10 19 0 14 5 26
11 26 12 0 9 38 -6 75 l-8 20 17 -20 17 -20 -2 20 c-1 11 -1 31 0 45 l2 25 26
-30 c19 -21 24 -24 20 -10 -3 11 -8 42 -11 68 -3 26 -10 57 -16 68 -6 10 -9
23 -6 27 2 4 -2 16 -10 27 -8 10 -14 17 -15 14 -7 -49 -7 -69 2 -74 7 -5 6
-11 -2 -21 -6 -8 -9 -23 -6 -34 3 -11 2 -20 -3 -20 -4 0 -10 11 -12 25 -3 14
-2 25 3 25 7 0 -10 36 -59 123 -17 29 -18 37 -7 37 7 0 17 -4 20 -10 7 -12 35
-14 35 -2 0 13 -87 97 -101 97 -20 0 -21 19 -2 41 10 11 28 39 41 62 l23 42
-33 -1 c-18 -1 -49 -5 -68 -9z m-155 -120 c3 -5 1 -10 -4 -10 -6 0 -11 5 -11
10 0 6 2 10 4 10 3 0 8 -4 11 -10z m12 -34 c-2 -6 -19 -10 -37 -8 -23 3 -31 0
-28 -10 3 -7 15 -12 27 -10 20 3 20 2 -5 -23 -23 -23 -31 -26 -57 -18 -17 4
-32 14 -35 22 -3 9 3 8 22 -4 26 -17 56 -15 56 4 0 6 -6 8 -14 5 -8 -3 -23 -1
-33 5 -15 9 -13 10 12 5 23 -4 26 -3 15 5 -13 9 -12 12 4 24 22 16 78 18 73 3z
m-147 -76 c0 -5 -4 -10 -10 -10 -5 0 -10 5 -10 10 0 6 5 10 10 10 6 0 10 -4
10 -10z m45 -10 c3 -5 -1 -10 -9 -10 -9 0 -16 5 -16 10 0 6 4 10 9 10 6 0 13
-4 16 -10z m-65 -20 c0 -5 -7 -10 -15 -10 -8 0 -15 5 -15 10 0 6 7 10 15 10 8
0 15 -4 15 -10z m-40 -14 c0 -3 -4 -8 -10 -11 -5 -3 -10 -1 -10 4 0 6 5 11 10
11 6 0 10 -2 10 -4z m354 -97 c9 -36 15 -98 14 -140 -1 -62 -2 -65 -5 -19 -5
100 -14 160 -24 160 -12 0 -12 -37 1 -45 12 -8 12 -202 0 -230 -6 -13 -9 21
-10 95 0 63 -5 132 -9 154 -10 41 -3 112 9 99 4 -4 15 -38 24 -74z m-44 -86
c-1 -28 -3 -34 -10 -22 -8 14 -3 59 6 59 2 0 4 -17 4 -37z m197 -20 c-3 -10
-5 -4 -5 12 0 17 2 24 5 18 2 -7 2 -21 0 -30z m-146 -186 c-6 -6 -11 -19 -11
-29 0 -10 -7 -18 -15 -18 -17 0 -9 31 12 43 7 4 13 16 14 25 0 12 2 13 6 4 3
-8 0 -19 -6 -25z m26 -39 c-3 -7 -5 -2 -5 12 0 14 2 19 5 13 2 -7 2 -19 0 -25z
m81 -28 c0 -28 -5 -53 -10 -56 -5 -4 -7 12 -4 38 3 23 5 49 5 56 1 6 3 12 5
12 2 0 4 -23 4 -50z m-21 -117 c-3 -10 -5 -2 -5 17 0 19 2 27 5 18 2 -10 2
-26 0 -35z m-139 -71 c-1 -31 4 -67 10 -79 8 -13 8 -24 3 -28 -17 -10 -33 35
-27 74 5 26 4 32 -3 21 -9 -13 -11 -13 -11 2 0 16 20 68 26 68 2 0 2 -26 2
-58z m126 4 c-3 -21 -8 -35 -11 -32 -2 2 -1 20 3 40 3 21 8 35 11 32 2 -2 1
-20 -3 -40z m-448 4 c4 -16 17 -36 30 -45 31 -20 69 -3 84 39 10 28 12 29 21
13 26 -45 -28 -147 -78 -147 -44 0 -81 27 -92 68 -13 45 -13 45 -1 76 13 35
29 33 36 -4z m341 -52 c-2 -13 -4 -3 -4 22 0 25 2 35 4 23 2 -13 2 -33 0 -45z
m-41 -150 c-3 -18 -5 -36 -5 -40 -1 -5 -5 -8 -11 -8 -5 0 -10 12 -10 28 -1 25
-1 26 -12 7 -7 -11 -12 -29 -13 -39 0 -24 -25 -34 -25 -11 0 22 50 86 61 79 5
-3 9 0 9 5 0 6 2 11 5 11 3 0 3 -15 1 -32z m134 22 c0 -5 -5 -10 -11 -10 -5 0
-7 5 -4 10 3 6 8 10 11 10 2 0 4 -4 4 -10z m15 -28 c-6 -4 -17 -20 -24 -37
-12 -25 -15 -27 -19 -11 -2 10 2 22 8 26 7 4 9 13 5 20 -5 8 -4 11 3 6 6 -3
14 -1 17 5 4 5 10 8 13 4 4 -3 2 -9 -3 -13z m35 -92 c0 -13 -1 -13 -10 0 -5 8
-10 22 -10 30 0 13 1 13 10 0 5 -8 10 -22 10 -30z m7 -52 c-3 -8 -6 -5 -6 6
-1 11 2 17 5 13 3 -3 4 -12 1 -19z m-13 -38 c-5 -5 -10 3 -11 18 -1 22 0 24 9
8 6 -10 6 -22 2 -26z m-214 13 c0 -5 -5 -15 -10 -23 -8 -12 -10 -12 -10 -1 0
11 -3 11 -15 1 -8 -7 -15 -9 -15 -5 0 9 31 34 43 35 4 0 7 -3 7 -7z m153 -44
c3 -12 -4 -30 -19 -47 l-23 -27 -1 25 c0 14 5 32 10 40 8 11 9 7 5 -15 -3 -16
-2 -23 1 -15 4 8 11 17 15 20 5 3 2 19 -6 34 -12 23 -13 26 -1 17 8 -6 16 -21
19 -32z m-177 -91 c1 -59 5 -93 13 -96 6 -2 11 -11 11 -20 0 -14 -2 -13 -14 3
-7 11 -16 29 -19 40 -4 16 -5 14 -6 -7 0 -15 -6 -30 -12 -34 -14 -8 -2 54 14
74 5 7 8 15 5 17 -5 5 -32 -45 -43 -79 -3 -10 -8 -17 -11 -14 -2 3 3 25 12 49
9 24 18 64 21 89 5 54 10 70 20 70 4 0 9 -41 9 -92z m30 18 c-8 -22 -16 -33
-18 -25 -3 8 -1 22 4 32 6 11 5 17 -3 17 -8 0 -8 4 1 15 21 26 30 3 16 -39z
m23 -13 c-5 -21 -9 -41 -9 -45 0 -4 -7 -5 -16 -1 -9 3 -11 9 -6 12 5 3 13 21
17 39 3 17 10 32 15 32 4 0 4 -17 -1 -37z m-72 -178 c10 -22 9 -25 -7 -25 -34
0 -48 -11 -43 -33 4 -18 3 -19 -6 -7 -17 24 -14 60 5 53 10 -4 17 1 21 16 7
28 15 26 30 -4z m-48 -100 c23 7 27 -5 10 -36 -5 -11 -14 -17 -20 -14 -9 6
-13 -7 -10 -32 1 -8 -5 -10 -14 -7 -11 5 -14 2 -9 -12 5 -15 4 -16 -4 -5 -7
10 -6 20 1 33 10 15 9 21 -3 28 -12 7 -12 12 -2 22 9 9 12 9 12 -5 0 -9 5 -17
10 -17 16 0 12 30 -5 36 -8 4 -12 11 -9 16 4 6 9 6 14 -2 4 -7 16 -9 29 -5z
m-59 -65 c0 -5 -5 -10 -11 -10 -5 0 -7 5 -4 10 3 6 8 10 11 10 2 0 4 -4 4 -10z
m-96 -292 c-8 -29 -6 -28 -32 -22 l-21 6 22 19 c30 25 40 24 31 -3z m256 -321
c0 -21 -18 7 -25 38 l-7 30 16 -29 c9 -15 16 -33 16 -39z m10 -37 c0 -11 -4
-20 -9 -20 -5 0 -7 9 -4 20 3 11 7 20 9 20 2 0 4 -9 4 -20z m13 -77 c3 -18 2
-33 -3 -33 -12 0 -17 21 -12 48 6 29 9 26 15 -15z"/>
<path d="M430 3355 c0 -45 14 -45 17 0 2 19 -2 35 -7 35 -6 0 -10 -16 -10 -35z"/>
<path d="M273 3373 c-30 -4 -33 -8 -33 -36 0 -23 3 -28 9 -17 6 8 7 18 5 22
-5 8 17 12 42 9 7 -1 14 5 18 14 3 8 2 14 -2 13 -4 0 -22 -3 -39 -5z"/>
<path d="M496 3358 c-4 -15 -5 -32 -1 -38 4 -6 -1 -22 -9 -35 -14 -22 -15 -25
-1 -25 18 0 28 34 23 86 -4 37 -4 38 -12 12z"/>
<path d="M1285 3324 c-68 -41 -148 -107 -211 -174 -23 -25 -74 -78 -113 -119
-67 -71 -117 -138 -107 -148 2 -2 14 11 27 29 40 56 141 158 157 158 12 0 12
-3 2 -15 -17 -20 -1 -19 21 1 10 9 15 22 12 30 -3 8 0 14 7 14 6 0 8 -4 5 -10
-3 -5 -2 -10 4 -10 15 0 23 18 11 25 -9 5 13 29 60 66 8 7 30 26 49 43 33 31
34 31 16 4 -9 -16 -35 -41 -57 -57 -21 -16 -35 -32 -30 -35 5 -3 17 3 27 14
10 11 24 20 31 20 7 0 19 11 26 24 16 29 84 113 116 140 22 20 29 36 15 36 -5
0 -35 -16 -68 -36z"/>
<path d="M3757 3349 c7 -7 15 -10 18 -7 3 3 -2 9 -12 12 -14 6 -15 5 -6 -5z"/>
<path d="M41 3319 c-15 -42 -14 -49 4 -43 8 4 12 10 9 15 -3 6 2 21 10 34 14
21 14 25 2 25 -8 0 -19 -14 -25 -31z"/>
<path d="M140 3321 c-15 -28 -12 -33 10 -19 21 13 27 38 10 38 -5 0 -14 -9
-20 -19z"/>
<path d="M552 3205 c-1 -93 -6 -145 -14 -153 -14 -14 -7 -24 10 -13 9 6 12 45
9 157 l-3 149 -2 -140z"/>
<path d="M624 3245 c0 -55 1 -76 3 -47 2 29 2 74 0 100 -2 26 -3 2 -3 -53z"/>
<path d="M687 3333 c-4 -3 -7 -60 -7 -125 0 -66 -5 -128 -10 -139 -14 -26 -38
-24 -43 4 -3 14 -5 8 -6 -15 -1 -26 -8 -42 -23 -52 -22 -16 -22 -16 -2 -16 12
0 26 11 34 25 7 14 19 25 25 25 7 0 19 8 27 18 12 13 16 47 17 150 1 72 0 132
-2 132 -2 0 -7 -3 -10 -7z"/>
<path d="M350 3175 c0 -123 -2 -137 -21 -156 -23 -23 -21 -33 4 -23 26 10 31
34 37 177 4 106 2 137 -7 137 -10 0 -13 -34 -13 -135z"/>
<path d="M430 3260 c0 -16 5 -30 10 -30 6 0 10 14 10 30 0 17 -4 30 -10 30 -5
0 -10 -13 -10 -30z"/>
<path d="M855 3270 c-3 -11 -11 -20 -16 -20 -5 0 -9 -9 -9 -21 0 -17 2 -18 13
-7 14 14 37 53 37 62 0 15 -19 4 -25 -14z"/>
<path d="M133 3205 c0 -38 2 -53 4 -32 2 20 2 52 0 70 -2 17 -4 1 -4 -38z"/>
<path d="M23 3213 c-13 -2 -23 -8 -23 -12 0 -5 11 -6 25 -3 14 2 25 8 25 13 0
5 -1 8 -2 8 -2 -1 -13 -4 -25 -6z"/>
<path d="M2740 3208 c0 -9 5 -20 10 -23 13 -8 13 5 0 25 -8 13 -10 13 -10 -2z"/>
<path d="M430 3153 c0 -31 3 -53 7 -49 12 11 14 106 3 106 -6 0 -10 -25 -10
-57z"/>
<path d="M2500 3194 c0 -8 5 -12 10 -9 6 4 8 11 5 16 -9 14 -15 11 -15 -7z"/>
<path d="M168 3165 c-4 -22 -15 -53 -23 -69 -8 -15 -15 -40 -15 -54 0 -13 -8
-31 -17 -38 -15 -11 -16 -13 -3 -14 22 0 40 20 40 46 0 12 7 38 16 59 8 20 14
53 12 73 l-3 37 -7 -40z"/>
<path d="M999 3183 c-13 -16 -12 -17 4 -4 9 7 17 15 17 17 0 8 -8 3 -21 -13z"/>
<path d="M492 3145 c0 -25 3 -45 7 -45 4 0 9 20 9 45 1 25 -2 45 -7 45 -5 0
-9 -20 -9 -45z"/>
<path d="M240 3107 c0 -55 -4 -80 -16 -91 -13 -14 -14 -16 0 -16 8 0 18 5 22
11 8 14 9 158 0 166 -3 4 -6 -28 -6 -70z"/>
<path d="M1440 3170 c-9 -6 -10 -10 -3 -10 6 0 15 5 18 10 8 12 4 12 -15 0z"/>
<path d="M280 3141 c-6 -12 -7 -21 -1 -21 10 0 24 30 17 37 -2 3 -9 -5 -16
-16z"/>
<path d="M950 3130 c-6 -11 -8 -20 -6 -20 3 0 10 9 16 20 6 11 8 20 6 20 -3 0
-10 -9 -16 -20z"/>
<path d="M5 3129 c-11 -17 1 -21 15 -4 8 9 8 15 2 15 -6 0 -14 -5 -17 -11z"/>
<path d="M2476 3098 c3 -24 10 -65 15 -91 5 -26 9 -70 9 -97 0 -28 4 -50 8
-50 11 0 9 -163 -2 -171 -4 -4 -3 -23 4 -43 6 -20 9 -43 6 -51 -3 -8 -1 -15 4
-15 6 0 10 6 10 14 0 8 3 22 7 32 4 10 2 15 -4 11 -12 -8 -11 168 1 180 5 5 5
-16 1 -44 -5 -37 -3 -53 5 -53 7 0 10 23 8 74 -2 50 -7 72 -14 69 -7 -2 -15 1
-20 8 -4 7 -2 15 4 17 9 3 9 9 1 23 -7 15 -6 41 5 96 16 74 21 141 11 131 -3
-3 -8 -30 -10 -61 -9 -103 -22 -111 -30 -19 -4 45 -11 82 -16 82 -5 0 -7 -19
-3 -42z"/>
<path d="M2502 3120 c0 -14 2 -19 5 -12 2 6 2 18 0 25 -3 6 -5 1 -5 -13z"/>
<path d="M430 3058 c0 -12 -7 -30 -17 -40 -15 -16 -15 -18 0 -18 9 0 21 9 27
19 13 25 13 61 0 61 -5 0 -10 -10 -10 -22z"/>
<path d="M486 3065 c-3 -8 -1 -15 3 -15 5 0 11 7 15 15 3 8 1 15 -3 15 -5 0
-11 -7 -15 -15z"/>
<path d="M1278 3033 c7 -3 16 -2 19 1 4 3 -2 6 -13 5 -11 0 -14 -3 -6 -6z"/>
<path d="M25 3020 l-30 -8 33 -1 c17 0 32 4 32 9 0 6 -1 9 -2 9 -2 -1 -16 -5
-33 -9z"/>
<path d="M696 3013 c-6 -14 -5 -15 5 -6 7 7 10 15 7 18 -3 3 -9 -2 -12 -12z"/>
<path d="M811 2982 c-17 -31 -13 -40 5 -14 9 13 14 26 11 29 -3 2 -10 -4 -16
-15z"/>
<path d="M1022 2988 c-15 -15 -16 -52 -1 -43 6 4 8 13 5 20 -2 7 1 18 7 24 6
6 9 11 6 11 -3 0 -10 -5 -17 -12z"/>
<path d="M759 2943 c-13 -16 -12 -17 4 -4 9 7 17 15 17 17 0 8 -8 3 -21 -13z"/>
<path d="M990 2935 c0 -8 4 -15 10 -15 5 0 7 7 4 15 -4 8 -8 15 -10 15 -2 0
-4 -7 -4 -15z"/>
<path d="M2157 2936 c-26 -7 -49 -15 -52 -18 -3 -2 44 -3 103 0 71 2 130 -1
177 -11 39 -8 71 -14 73 -12 2 2 -23 13 -55 25 -72 27 -182 35 -246 16z"/>
<path d="M1565 2870 c3 -5 13 -10 21 -10 8 0 32 -11 52 -25 40 -27 61 -33 43
-12 -6 8 -8 17 -4 21 7 7 -26 35 -42 35 -5 1 1 -8 15 -19 14 -11 21 -20 15
-20 -5 0 -21 9 -35 20 -26 20 -76 28 -65 10z"/>
<path d="M2205 2815 l30 -14 -28 6 c-28 5 -61 -12 -51 -28 3 -5 -3 -9 -12 -9
-10 0 -15 -3 -12 -6 3 -3 32 2 64 12 l58 17 -23 18 c-13 11 -31 19 -40 19 -9
-1 -3 -7 14 -15z m-20 -25 c-3 -5 -11 -10 -16 -10 -6 0 -7 5 -4 10 3 6 11 10
16 10 6 0 7 -4 4 -10z"/>
<path d="M727 2813 c-4 -3 -7 -11 -7 -17 0 -6 5 -5 12 2 6 6 9 14 7 17 -3 3
-9 2 -12 -2z"/>
<path d="M1324 2792 c-58 -20 -93 -46 -136 -99 -45 -57 -97 -140 -104 -167 -6
-25 14 -74 40 -95 14 -12 14 -9 2 33 -13 43 -13 48 14 104 15 33 35 68 43 78
9 11 28 34 43 52 35 43 86 68 154 74 48 5 51 4 22 -5 -32 -10 -32 -10 -10 -21
39 -20 37 -109 -3 -119 -16 -4 -19 -11 -14 -29 10 -33 39 -72 58 -76 22 -4 56
36 63 75 9 47 28 36 32 -18 3 -52 -33 -128 -67 -141 -12 -4 -20 -4 -17 0 3 5
-7 7 -22 4 -28 -4 -73 29 -81 59 -18 71 -19 84 -6 109 8 15 10 31 5 36 -4 5
-10 20 -12 34 -4 22 -5 20 -16 -15 -16 -53 -15 -118 2 -158 30 -70 106 -108
163 -80 49 23 67 66 71 173 4 93 3 96 -24 126 -16 18 -36 34 -44 38 -8 3 6 3
32 1 69 -8 77 -13 90 -56 11 -39 36 -49 30 -13 -11 69 -34 87 -137 104 -83 14
-112 12 -171 -8z"/>
<path d="M945 2740 c-4 -11 -15 -28 -24 -38 -26 -25 -107 -188 -102 -206 1 -5
-5 -6 -14 -3 -17 7 -20 -4 -5 -19 6 -6 19 -31 28 -55 21 -52 54 -109 64 -109
3 0 9 30 12 68 15 170 28 274 40 323 14 53 15 82 1 39z"/>
<path d="M745 2520 c28 -12 37 -12 30 0 -3 6 -16 10 -28 9 -21 0 -21 -1 -2 -9z"/>
<path d="M685 2490 c-16 -16 -27 -31 -24 -33 2 -2 17 11 32 30 36 41 31 43 -8
3z"/>
<path d="M631 2417 c-13 -21 -12 -21 5 -5 10 10 16 20 13 22 -3 3 -11 -5 -18
-17z"/>
<path d="M694 2408 c-5 -8 -2 -9 10 -5 11 4 15 3 11 -4 -4 -6 -14 -8 -22 -4
-34 12 -68 -88 -40 -117 8 -7 12 -19 9 -27 -3 -8 0 -11 6 -8 5 4 13 23 16 42
7 34 26 49 26 20 0 -8 -5 -15 -12 -15 -6 0 -3 -9 7 -20 10 -11 20 -19 22 -17
2 2 -2 28 -8 56 -11 52 -11 53 -30 32 -10 -11 -19 -25 -19 -31 0 -5 -4 -10
-10 -10 -16 0 -11 19 10 37 11 10 20 22 20 28 0 5 -4 3 -10 -5 -5 -8 -11 -12
-14 -9 -3 2 -1 11 3 18 7 10 13 11 30 2 12 -7 27 -9 34 -5 9 6 9 4 -1 -8 -10
-12 -10 -17 1 -27 8 -6 17 -8 20 -5 3 4 9 -6 13 -20 3 -15 4 -30 0 -33 -3 -4
-6 3 -6 14 0 11 -7 20 -15 20 -19 0 -19 -21 0 -37 12 -10 13 -16 4 -27 -7 -7
-9 -16 -6 -19 3 -3 1 -19 -5 -35 -6 -17 -12 -28 -14 -26 -3 2 0 15 5 29 7 18
5 30 -8 47 -16 21 -19 22 -34 7 -21 -22 -24 -21 -43 19 -9 20 -19 34 -21 31
-7 -7 34 -89 57 -113 16 -18 17 -27 10 -55 -13 -44 -12 -59 5 -82 11 -15 17
-16 28 -7 8 6 23 9 33 6 12 -4 11 -2 -3 6 -13 7 -23 17 -23 23 0 6 -5 4 -10
-4 -7 -11 -10 -4 -10 28 0 24 5 42 11 42 7 0 9 -10 5 -25 -4 -14 -2 -25 4 -25
5 0 10 13 10 29 0 32 14 48 26 30 4 -7 3 -9 -3 -6 -7 4 -12 -7 -15 -28 -3 -30
1 -39 26 -60 l30 -25 -35 0 c-19 0 -40 -5 -47 -12 -9 -9 -18 -6 -38 13 l-27
24 23 -32 c23 -32 40 -42 40 -24 0 14 58 21 86 10 32 -12 34 -11 27 21 -2 14
-17 33 -34 42 -36 21 -36 33 -3 101 l26 53 -32 75 c-18 41 -39 84 -48 97 -16
24 -37 29 -48 10z m106 -170 c0 -5 -7 -8 -16 -8 -8 0 -12 -5 -9 -10 4 -6 11
-8 16 -5 13 9 10 -6 -7 -35 -15 -25 -15 -25 -8 -1 4 15 1 27 -7 32 -11 6 -11
12 1 34 10 18 16 22 22 13 4 -7 8 -16 8 -20z m-89 -51 c-9 -9 -14 -9 -21 3
-16 25 -11 37 6 15 15 -19 15 -19 9 10 -5 28 -5 29 6 7 10 -18 10 -25 0 -35z
m59 9 c0 -3 -4 -8 -10 -11 -5 -3 -10 -1 -10 4 0 6 5 11 10 11 6 0 10 -2 10 -4z
m-51 -138 c7 1 10 -2 6 -8 -10 -17 -35 8 -34 34 1 19 2 18 8 -4 4 -14 13 -24
20 -22z"/>
<path d="M591 2339 c-6 -18 -9 -34 -7 -36 2 -2 9 10 15 28 6 18 9 34 7 36 -2
2 -9 -10 -15 -28z"/>
<path d="M2591 2298 c1 -37 2 -39 9 -18 12 36 12 60 0 60 -5 0 -10 -19 -9 -42z"/>
<path d="M571 2264 c0 -11 3 -14 6 -6 3 7 2 16 -1 19 -3 4 -6 -2 -5 -13z"/>
<path d="M1919 2178 c-1 -46 -3 -95 -4 -110 -5 -35 34 -62 76 -53 16 4 29 11
29 16 0 5 6 9 14 9 7 0 19 7 26 15 9 11 4 26 -26 77 -96 157 -113 164 -115 46z
m61 10 c0 -7 -9 2 -20 20 -26 42 -26 52 0 19 11 -14 20 -31 20 -39z m-28 -63
l5 30 2 -31 c0 -16 -5 -38 -12 -48 -11 -15 -13 -8 -14 46 0 58 0 59 6 18 7
-42 7 -43 13 -15z m69 3 c23 -32 25 -45 4 -28 -8 7 -15 19 -15 27 0 8 -4 11
-10 8 -6 -4 -10 6 -9 22 0 16 3 22 6 13 3 -8 14 -27 24 -42z m9 -54 c6 -1 13
-2 16 -3 15 -3 -48 -43 -73 -46 -16 -2 -22 -2 -15 1 6 3 12 10 12 15 0 6 -5 7
-11 4 -6 -4 -5 2 2 13 7 11 18 18 25 15 9 -3 12 2 9 19 -4 23 -4 23 11 3 8
-11 19 -21 24 -21z"/>
<path d="M1986 2060 c-15 -5 -16 -9 -7 -14 7 -5 18 -3 24 3 14 14 6 20 -17 11z"/>
<path d="M562 2190 c0 -14 2 -19 5 -12 2 6 2 18 0 25 -3 6 -5 1 -5 -13z"/>
<path d="M610 2023 c0 -5 10 -18 23 -29 l22 -19 -20 25 c-11 14 -21 27 -22 29
-2 2 -3 0 -3 -6z"/>
<path d="M740 1886 c0 -2 7 -7 16 -10 8 -3 12 -2 9 4 -6 10 -25 14 -25 6z"/>
<path d="M780 1865 c0 -7 61 -37 66 -33 2 3 -12 12 -31 21 -19 9 -35 15 -35
12z"/>
<path d="M898 1834 c-4 -3 0 -13 8 -21 8 -9 17 -13 19 -11 3 2 -1 12 -8 22 -7
9 -16 14 -19 10z"/>
<path d="M1660 1778 c-78 -40 -62 -52 75 -59 66 -4 138 -8 160 -10 49 -5 57
16 21 57 -23 28 -29 29 -118 32 -81 3 -99 0 -138 -20z m244 -18 c17 -16 28
-31 25 -35 -11 -10 -299 17 -292 27 14 24 72 38 152 36 77 -1 86 -3 115 -28z"/>
<path d="M940 1755 c0 -3 9 -23 20 -45 11 -22 36 -83 56 -137 20 -54 44 -122
55 -150 23 -64 26 -143 5 -143 -8 0 -47 7 -87 15 -40 9 -74 13 -76 11 -3 -2
22 -9 54 -16 32 -6 71 -15 87 -21 16 -5 33 -9 39 -9 5 0 7 43 5 108 -3 59 -3
112 -1 119 4 12 83 -57 83 -73 0 -4 -6 -1 -12 7 -7 8 -12 12 -11 10 1 -2 -4
-16 -13 -32 -15 -31 -2 -41 15 -12 5 10 12 15 16 11 4 -3 -3 -16 -15 -28 -12
-12 -18 -25 -13 -29 5 -3 18 -20 28 -38 10 -18 23 -29 29 -26 5 4 7 0 4 -8 -3
-8 2 -24 12 -36 l17 -22 12 22 c15 29 9 66 -14 83 -15 11 -20 11 -30 -2 -10
-14 -13 -14 -23 -1 -10 11 -9 17 3 27 11 9 15 9 15 1 0 -7 5 -9 10 -6 19 12
10 24 -15 19 -29 -5 -30 1 -9 36 11 19 14 21 12 6 -2 -10 3 -21 11 -24 10 -3
12 0 7 14 -6 15 -2 14 21 -6 36 -32 43 -42 37 -52 -3 -4 -1 -8 4 -8 5 0 9 -7
9 -15 0 -8 -4 -12 -10 -8 -5 3 -7 -5 -5 -17 2 -17 14 -26 48 -36 l45 -13 -25
19 c-14 11 -33 18 -42 16 -21 -5 -24 9 -5 17 7 3 21 -1 32 -9 10 -8 26 -12 34
-9 9 2 27 -5 41 -16 23 -19 23 -20 3 -14 -12 3 -24 2 -27 -3 -3 -5 12 -8 34
-6 23 2 45 -2 52 -10 15 -14 84 -28 138 -28 27 0 30 -2 15 -8 l-20 -7 20 -5
c17 -5 18 -6 2 -7 -10 0 -27 4 -38 9 -13 8 -25 7 -39 0 -12 -6 -20 -7 -20 -1
0 5 6 12 13 14 6 3 -5 6 -25 6 -20 1 -40 6 -43 11 -3 6 -26 10 -49 10 -24 0
-60 7 -79 15 -41 17 -67 19 -67 6 0 -5 9 -7 20 -4 11 3 20 0 20 -6 0 -7 -10
-10 -26 -7 -16 3 -27 0 -31 -10 -7 -18 14 -44 31 -38 7 3 21 -4 31 -16 10 -11
13 -20 7 -20 -6 0 -14 5 -17 10 -3 6 -11 10 -17 10 -6 0 -3 -9 7 -20 10 -12
24 -19 31 -16 8 3 10 -3 6 -16 -3 -13 -1 -19 5 -15 6 4 13 -3 16 -14 4 -16 11
-19 29 -14 17 5 19 4 9 -4 -12 -8 -12 -12 -2 -25 7 -8 19 -12 27 -9 10 3 12 0
8 -10 -3 -8 -2 -17 3 -20 4 -3 9 6 10 20 1 26 28 61 39 51 3 -4 -5 -17 -17
-29 -15 -15 -19 -24 -11 -27 7 -2 26 11 43 29 30 32 32 33 45 14 10 -14 11
-22 2 -32 -9 -11 -13 -11 -19 -2 -5 9 -11 8 -24 -5 -14 -13 -15 -19 -5 -31 9
-11 9 -15 1 -15 -6 0 -11 5 -11 10 0 6 -7 10 -17 10 -14 0 -14 -2 2 -20 21
-23 41 -26 48 -7 3 7 6 4 6 -6 1 -17 8 -18 79 -12 42 4 79 11 80 16 5 12 52
11 52 -1 0 -5 9 -10 20 -10 24 0 26 -32 5 -70 -8 -14 -14 -34 -15 -46 0 -11
-7 -29 -16 -40 -15 -18 -15 -18 -5 3 16 32 13 42 -4 13 -8 -14 -12 -33 -8 -44
3 -12 1 -16 -6 -12 -6 4 -11 3 -11 -2 0 -5 -10 -14 -22 -21 -21 -11 -21 -11 7
-6 17 3 38 15 47 27 44 51 119 370 117 497 -1 44 -3 58 -8 41 l-7 -25 -184 -1
c-159 -1 -191 2 -228 18 -24 10 -48 16 -52 13 -11 -7 -60 15 -60 27 0 5 11 1
25 -8 49 -32 35 -6 -18 34 -145 109 -270 250 -337 380 -20 38 -30 51 -30 37z
m300 -491 c0 -8 -5 -12 -10 -9 -6 4 -8 11 -5 16 9 14 15 11 15 -7z m270 -18
c0 -3 -4 -8 -10 -11 -5 -3 -10 -1 -10 4 0 6 5 11 10 11 6 0 10 -2 10 -4z m165
-21 c59 -2 78 -1 55 4 -28 7 -30 9 -10 10 32 1 70 -9 70 -19 0 -10 -158 -13
-226 -4 -31 3 -51 10 -48 16 4 6 20 7 38 3 17 -3 72 -8 121 -10z m141 -12
c-10 -10 -19 5 -10 18 6 11 8 11 12 0 2 -7 1 -15 -2 -18z m-466 -7 c0 -11 -19
-15 -25 -6 -3 5 1 10 9 10 9 0 16 -2 16 -4z m-75 -16 c3 -5 1 -10 -4 -10 -6 0
-11 5 -11 10 0 6 2 10 4 10 3 0 8 -4 11 -10z m43 -6 c7 -13 13 -14 30 -5 11 6
38 10 59 10 26 -1 30 -3 13 -6 -14 -2 -39 -9 -57 -14 -33 -11 -73 1 -73 21 0
16 18 12 28 -6z m501 -16 c0 -13 -3 -17 -6 -10 -6 16 -33 15 -33 -2 0 -8 -9
-12 -22 -10 -13 2 -45 6 -73 10 -39 5 -46 8 -30 15 11 4 31 8 45 8 20 1 22 -1
10 -9 -12 -8 -10 -10 8 -10 13 0 20 4 17 10 -3 6 1 10 9 10 9 0 16 -6 16 -12
0 -9 2 -10 8 -2 4 7 16 14 27 17 11 2 21 5 23 6 1 0 2 -9 1 -21z m-353 -14
c-23 -8 -49 -11 -65 -7 -23 7 -21 8 19 14 75 10 87 8 46 -7z m109 -4 c4 -6
-10 -10 -37 -9 -40 1 -41 2 -13 9 43 11 43 11 50 0z m234 -50 c0 -21 -2 -22
-8 -6 -6 15 -10 10 -21 -23 -14 -44 -7 -70 9 -30 9 23 10 23 10 2 1 -12 -4
-25 -9 -28 -6 -4 -10 -12 -9 -18 3 -25 -1 -35 -17 -41 -14 -5 -15 -4 -5 8 8 9
10 28 5 50 -4 22 -1 48 6 66 7 17 10 33 7 37 -4 3 -11 -5 -16 -18 -5 -13 -10
-19 -10 -12 -1 6 -18 14 -38 16 l-38 4 43 1 c23 1 42 7 42 13 0 6 7 9 15 5 10
-4 15 1 16 17 0 21 1 21 9 2 5 -11 9 -31 9 -45z m-399 5 c0 -19 -4 -35 -10
-35 -5 0 -10 16 -10 35 0 19 5 35 10 35 6 0 10 -16 10 -35z m30 -49 c0 -3 -4
-8 -10 -11 -5 -3 -10 -1 -10 4 0 6 5 11 10 11 6 0 10 -2 10 -4z m290 -27 c0
-5 -7 -9 -15 -9 -15 0 -20 12 -9 23 8 8 24 -1 24 -14z m-102 -27 c2 -12 0 -22
-5 -22 -4 0 -18 -3 -30 -6 -28 -8 -30 8 -5 35 21 24 36 21 40 -7z m130 -14
c-2 -6 -10 -14 -16 -16 -7 -2 -10 2 -6 12 7 18 28 22 22 4z m-208 -14 c0 -2
-9 -4 -20 -4 -11 0 -20 4 -20 9 0 5 9 7 20 4 11 -3 20 -7 20 -9z m70 -14 c0
-5 -21 -9 -47 -9 l-48 2 40 7 c22 4 43 8 48 9 4 0 7 -3 7 -9z"/>
<path d="M2290 1603 c0 -5 -25 -35 -54 -67 -49 -54 -53 -61 -41 -79 7 -11 11
-26 8 -33 -3 -8 -1 -14 4 -14 13 0 99 78 92 84 -3 3 -15 -3 -27 -14 -16 -15
-22 -17 -22 -7 0 13 36 36 51 33 9 -1 49 35 49 44 0 10 -44 60 -53 60 -4 0 -7
-3 -7 -7z m1 -37 c-6 -7 -9 -21 -5 -30 3 -9 1 -16 -6 -16 -6 0 -8 5 -5 10 3 6
1 10 -6 10 -7 0 -5 8 6 20 20 22 34 28 16 6z m34 -28 c-19 -11 -30 -5 -21 11
4 6 14 7 22 4 15 -5 14 -7 -1 -15z m-67 -23 c-3 -3 -9 2 -12 12 -6 14 -5 15 5
6 7 -7 10 -15 7 -18z m-20 -26 c-3 -38 -10 -43 -34 -23 -19 14 -19 14 0 12 10
-2 21 3 24 11 3 10 0 11 -9 5 -12 -7 -12 -5 0 9 19 24 22 22 19 -14z"/>
<path d="M1107 1455 c3 -14 9 -25 13 -25 5 0 6 -10 2 -22 -3 -14 -1 -19 6 -14
16 10 11 54 -9 72 -15 13 -16 12 -12 -11z"/>
<path d="M2153 1445 c-19 -21 -16 -24 11 -12 13 7 22 15 20 19 -7 11 -17 9
-31 -7z"/>
<path d="M2163 1413 c-3 -10 -8 -22 -11 -26 -2 -5 4 -7 13 -5 19 3 29 34 14
44 -5 3 -12 -3 -16 -13z"/>
<path d="M2101 1400 c-18 -15 -19 -20 -7 -20 9 0 16 5 16 11 0 6 9 8 22 3 20
-6 21 -5 9 10 -7 9 -14 16 -15 16 0 -1 -12 -10 -25 -20z"/>
<path d="M2120 1380 c0 -12 28 -25 36 -17 3 3 -4 10 -15 17 -15 7 -21 7 -21 0z"/>
<path d="M1224 1353 c1 -19 24 -42 41 -43 6 0 3 5 -5 10 -10 6 -11 10 -3 10 9
0 7 7 -4 20 -21 25 -31 25 -29 3z"/>
<path d="M756 1334 c-23 -22 -20 -31 3 -10 17 16 23 16 77 2 74 -19 83 -13 11
8 -68 20 -72 20 -91 0z"/>
<path d="M1900 1300 c0 -5 6 -10 14 -10 16 0 30 -45 20 -62 -4 -6 -3 -8 3 -5
14 9 32 -84 40 -196 5 -73 9 -87 22 -84 9 2 14 10 12 18 -15 57 -30 139 -31
164 0 46 -29 147 -47 167 -18 20 -33 23 -33 8z"/>
<path d="M731 1273 c-1 -6 -4 -20 -7 -30 -5 -17 -5 -17 6 0 6 10 9 23 6 30 -3
9 -5 9 -5 0z"/>
<path d="M776 1254 c5 -21 4 -25 -6 -19 -9 6 -11 4 -6 -4 5 -7 11 -10 14 -6 8
7 45 -176 45 -223 0 -18 4 -28 7 -22 4 7 10 -5 13 -26 4 -22 2 -43 -5 -51 -8
-10 -7 -12 4 -8 12 5 17 -5 22 -41 4 -32 2 -50 -5 -55 -17 -10 -89 -20 -99
-14 -4 3 -10 1 -12 -4 -4 -11 -120 -17 -136 -7 -7 4 -12 2 -12 -4 0 -19 24
-21 106 -11 43 5 80 8 82 6 13 -13 -18 -52 -66 -84 -86 -55 -221 -151 -227
-161 -3 -4 35 19 83 52 48 32 112 75 144 95 33 22 62 50 71 69 16 33 63 54 88
38 14 -8 15 -12 -41 255 -41 200 -54 251 -65 251 -3 0 -2 -12 1 -26z"/>
<path d="M1901 1234 c0 -11 3 -14 6 -6 3 7 2 16 -1 19 -3 4 -6 -2 -5 -13z"/>
<path d="M1095 1218 c-2 -7 -7 -66 -10 -130 -5 -82 -11 -121 -21 -129 -16 -13
-19 2 -4 17 7 7 6 11 -3 11 -11 0 -14 -13 -12 -49 2 -34 -3 -55 -15 -70 l-17
-22 -8 23 c-15 47 -22 0 -9 -57 7 -31 11 -68 8 -82 -4 -22 -3 -22 5 -5 9 19
10 19 10 -3 1 -27 43 -187 72 -276 23 -73 24 -82 2 -65 -11 10 -14 10 -9 2 4
-7 3 -13 -3 -13 -14 0 -32 35 -23 45 4 5 2 5 -4 2 -6 -3 -41 25 -78 63 -71 74
-84 84 -64 48 7 -13 11 -27 10 -31 -1 -5 3 -5 9 -1 9 5 10 2 6 -10 -4 -11 -3
-15 4 -10 6 3 49 -34 98 -85 109 -113 129 -118 94 -23 -50 137 -71 231 -50
233 16 2 18 2 52 -6 l30 -6 -27 16 c-15 8 -31 27 -34 40 -3 14 -10 26 -15 26
-5 1 -13 3 -19 4 -5 1 -14 3 -20 4 -5 0 -10 5 -10 11 0 5 6 7 14 4 17 -7 26
33 24 111 0 28 4 75 10 105 6 30 13 115 15 188 5 122 3 152 -8 120z m-25 -292
c0 -3 -4 -8 -10 -11 -5 -3 -10 -1 -10 4 0 6 5 11 10 11 6 0 10 -2 10 -4z m-6
-68 c-4 -13 -7 -31 -6 -40 0 -10 -4 -18 -10 -18 -10 0 -7 -29 7 -62 4 -10 3
-18 -3 -18 -5 0 -13 12 -16 28 -4 15 -9 35 -13 46 -3 12 -1 16 6 12 6 -4 11
-1 11 8 0 19 18 66 25 66 4 0 3 -10 -1 -22z m6 -213 c0 -8 -2 -15 -4 -15 -2 0
-6 7 -10 15 -3 8 -1 15 4 15 6 0 10 -7 10 -15z m30 -20 c0 -5 -5 -3 -10 5 -5
8 -10 20 -10 25 0 6 5 3 10 -5 5 -8 10 -19 10 -25z m28 -288 l11 -30 -24 23
c-28 26 -31 37 -12 37 8 0 19 -14 25 -30z"/>
<path d="M2438 1223 c10 -4 10 -8 1 -19 -8 -10 -8 -14 0 -14 6 0 11 -5 11 -11
0 -6 7 -18 16 -27 15 -15 16 -14 9 8 -4 14 -12 28 -17 31 -6 4 -5 9 2 14 9 6
9 10 -1 16 -8 5 -18 8 -24 8 -5 0 -4 -3 3 -6z"/>
<path d="M706 1194 c-4 -14 -5 -28 -3 -31 3 -2 8 8 11 23 4 14 5 28 3 31 -3 2
-8 -8 -11 -23z"/>
<path d="M968 1213 c7 -3 16 -2 19 1 4 3 -2 6 -13 5 -11 0 -14 -3 -6 -6z"/>
<path d="M962 1180 c0 -14 2 -19 5 -12 2 6 2 18 0 25 -3 6 -5 1 -5 -13z"/>
<path d="M771 1174 c0 -11 3 -14 6 -6 3 7 2 16 -1 19 -3 4 -6 -2 -5 -13z"/>
<path d="M1871 1174 c0 -11 3 -14 6 -6 3 7 2 16 -1 19 -3 4 -6 -2 -5 -13z"/>
<path d="M683 1105 c-6 -28 -18 -79 -28 -113 -9 -35 -14 -66 -12 -69 3 -2 10
15 15 39 5 24 17 71 27 106 9 35 15 68 12 75 -2 6 -8 -11 -14 -38z"/>
<path d="M1942 1120 c0 -14 2 -19 5 -12 2 6 2 18 0 25 -3 6 -5 1 -5 -13z"/>
<path d="M801 1024 c0 -11 3 -14 6 -6 3 7 2 16 -1 19 -3 4 -6 -2 -5 -13z"/>
<path d="M2448 1013 c7 -3 16 -2 19 1 4 3 -2 6 -13 5 -11 0 -14 -3 -6 -6z"/>
<path d="M2448 983 c7 -3 16 -2 19 1 4 3 -2 6 -13 5 -11 0 -14 -3 -6 -6z"/>
<path d="M2149 963 c-13 -17 -13 -17 6 -3 11 8 22 16 24 17 2 2 0 3 -6 3 -6 0
-17 -8 -24 -17z"/>
<path d="M2225 950 c-4 -6 -14 -8 -23 -6 -33 10 -45 -12 -62 -108 -10 -53 -14
-96 -10 -96 14 0 32 29 25 40 -3 5 1 13 9 16 9 3 16 10 16 16 0 5 -4 6 -10 3
-5 -3 -10 1 -10 10 0 10 5 13 12 9 8 -5 9 -2 5 9 -3 9 -2 19 4 23 7 4 6 10 -1
19 -12 15 10 37 42 42 18 3 19 1 7 -14 -13 -16 -12 -17 4 -4 9 8 15 16 12 19
-3 3 0 11 6 19 9 10 8 13 -4 13 -9 0 -19 -5 -22 -10z"/>
<path d="M3447 949 c-9 -6 -21 -8 -26 -4 -19 11 -40 -27 -51 -97 -6 -40 -14
-81 -16 -90 -3 -10 -1 -18 5 -18 11 0 25 46 36 120 8 52 20 70 46 70 10 0 21
5 24 11 10 15 2 19 -18 8z"/>
<path d="M680 945 c0 -5 5 -17 10 -25 5 -8 10 -10 10 -5 0 6 -5 17 -10 25 -5
8 -10 11 -10 5z"/>
<path d="M1698 943 c7 -3 16 -2 19 1 4 3 -2 6 -13 5 -11 0 -14 -3 -6 -6z"/>
<path d="M2056 935 c-16 -42 -1 -195 20 -195 9 0 11 13 8 48 -3 26 -7 53 -10
61 -3 8 7 25 21 37 16 13 22 25 16 29 -6 3 -11 2 -11 -3 0 -6 -6 -12 -13 -15
-8 -3 -14 5 -15 21 -3 32 -8 37 -16 17z"/>
<path d="M3607 914 c-15 -20 -15 -24 -3 -24 8 0 18 9 21 21 10 29 3 31 -18 3z"/>
<path d="M3256 912 c-2 -4 -7 -22 -11 -41 -5 -26 -4 -32 6 -29 8 3 15 14 17
26 2 12 8 22 13 22 5 0 9 4 9 9 0 11 -28 22 -34 13z"/>
<path d="M3317 900 c-6 -24 8 -36 17 -14 8 22 7 34 -3 34 -5 0 -11 -9 -14 -20z"/>
<path d="M921 894 c0 -11 3 -14 6 -6 3 7 2 16 -1 19 -3 4 -6 -2 -5 -13z"/>
<path d="M961 894 c0 -11 3 -14 6 -6 3 7 2 16 -1 19 -3 4 -6 -2 -5 -13z"/>
<path d="M1943 873 c-9 -21 -18 -40 -20 -43 -2 -3 5 -6 15 -7 13 -1 26 13 40
43 21 43 21 44 2 44 -13 0 -25 -13 -37 -37z"/>
<path d="M3194 898 c-13 -19 -34 -60 -34 -64 0 -2 5 -4 11 -4 5 0 17 16 25 36
15 36 14 57 -2 32z"/>
<path d="M625 870 c-4 -17 -5 -34 -2 -36 2 -3 7 10 11 27 3 18 4 34 2 36 -2 3
-7 -10 -11 -27z"/>
<path d="M2270 890 c20 -13 33 -13 25 0 -3 6 -14 10 -23 10 -15 0 -15 -2 -2
-10z"/>
<path d="M2326 863 c12 -60 -41 -153 -87 -153 -12 0 -24 -13 -33 -34 -24 -57
-78 -83 -109 -51 -13 13 -16 13 -21 -1 -4 -10 -2 -13 6 -8 7 4 8 3 4 -5 -4 -6
-16 -9 -25 -6 -10 3 -24 -1 -31 -10 -9 -11 -9 -15 -1 -15 7 0 9 -5 6 -10 -4
-6 -11 -7 -17 -4 -7 5 -8 2 -3 -6 6 -10 4 -12 -8 -7 -10 4 -14 2 -11 -7 5 -13
-42 -41 -65 -37 -7 1 -10 -2 -7 -7 9 -15 -19 -33 -40 -26 -14 4 -16 4 -5 -4
11 -8 10 -12 -6 -21 -11 -5 -24 -7 -28 -3 -5 4 -5 2 -2 -5 4 -6 -7 -20 -27
-33 -19 -11 -36 -26 -39 -33 -3 -9 -9 -8 -23 3 -17 14 -18 13 -7 -1 11 -13 10
-19 -6 -33 -11 -10 -24 -15 -30 -11 -7 4 -8 0 -4 -11 5 -13 3 -15 -7 -9 -9 5
-11 4 -6 -3 9 -15 54 -11 68 5 6 7 7 13 3 13 -5 0 0 9 10 20 10 11 22 17 28
13 6 -4 7 -1 2 7 -6 10 -4 12 9 7 9 -4 15 -3 11 2 -3 5 12 20 32 32 21 13 42
29 46 36 4 7 13 13 19 13 5 0 32 19 60 41 27 23 52 39 55 35 4 -3 2 -6 -4 -6
-6 0 -14 -7 -17 -16 -4 -11 2 -9 22 6 15 12 27 29 27 38 1 10 7 16 14 14 7 -1
10 1 8 5 -3 5 2 14 10 22 13 12 14 11 8 -10 -5 -19 -4 -21 4 -9 10 13 12 13
21 0 6 -10 10 -11 10 -3 0 8 11 11 29 9 23 -2 28 0 24 13 -4 9 -2 13 2 8 5 -4
18 12 29 35 13 25 30 44 41 46 11 2 23 9 26 14 4 6 9 3 12 -8 5 -18 5 -18 6 0
0 11 7 27 15 35 23 26 30 122 12 146 -15 19 -15 19 -10 -12z m-266 -273 c0 -5
-4 -10 -10 -10 -5 0 -10 5 -10 10 0 6 5 10 10 10 6 0 10 -4 10 -10z m0 -40 c0
-5 -4 -10 -10 -10 -5 0 -10 5 -10 10 0 6 5 10 10 10 6 0 10 -4 10 -10z"/>
<path d="M2246 864 c-10 -25 1 -29 14 -5 6 12 7 21 1 21 -5 0 -12 -7 -15 -16z"/>
<path d="M1998 854 c-3 -10 -9 -27 -13 -36 -5 -13 -2 -18 9 -18 22 0 29 20 18
50 -8 22 -9 22 -14 4z"/>
<path d="M2917 856 c-4 -10 -5 -21 -2 -24 9 -9 17 6 13 25 -3 17 -4 17 -11 -1z"/>
<path d="M3608 865 c-3 -6 -9 -28 -13 -50 -4 -22 -9 -48 -12 -57 -2 -10 0 -18
6 -18 13 0 33 74 29 108 -2 15 -6 22 -10 17z"/>
<path d="M3743 850 c-12 -28 -8 -39 8 -23 6 6 9 19 6 29 -3 17 -5 16 -14 -6z"/>
<path d="M2545 829 c-19 -35 -16 -80 4 -87 9 -3 11 0 7 7 -4 7 -3 17 2 24 13
17 23 87 12 87 -5 0 -17 -14 -25 -31z"/>
<path d="M2785 824 c-3 -22 -8 -49 -11 -61 -5 -28 12 -31 21 -4 8 25 10 90 2
97 -3 3 -9 -11 -12 -32z"/>
<path d="M2873 852 c-10 -6 -10 -12 2 -28 14 -18 14 -18 15 9 0 30 0 30 -17
19z"/>
<path d="M3036 830 c-4 -23 -15 -35 -41 -46 -19 -8 -35 -18 -35 -24 0 -17 19
-20 37 -5 10 8 26 20 35 27 20 15 36 78 21 78 -6 0 -13 -14 -17 -30z"/>
<path d="M3676 838 c-20 -28 -22 -98 -3 -98 9 0 12 11 9 34 -3 26 1 39 16 52
12 10 19 21 16 26 -9 14 -22 9 -38 -14z"/>
<path d="M2269 834 c-42 -48 -51 -94 -18 -94 12 0 19 5 16 13 -2 6 2 25 10 40
8 16 13 35 11 44 -3 13 -5 12 -19 -3z"/>
<path d="M2395 793 c-15 -32 -31 -66 -36 -75 -12 -24 -12 -25 12 -31 12 -3 18
-3 15 0 -3 3 3 14 15 24 14 12 16 18 7 22 -10 4 -10 6 0 6 6 1 12 12 12 25 0
14 4 36 10 50 19 52 -9 34 -35 -21z"/>
<path d="M2650 837 c-9 -7 -24 -33 -33 -58 -17 -44 -35 -60 -85 -74 -18 -5
-25 -2 -29 14 -5 20 -6 20 -32 2 -14 -10 -33 -16 -41 -13 -11 4 -10 0 3 -13
10 -9 21 -15 24 -11 4 3 15 -1 25 -11 10 -9 18 -11 18 -5 0 6 -6 13 -12 15 -7
3 1 6 17 6 23 1 27 -2 15 -9 -11 -7 -6 -8 17 -4 28 6 76 -14 156 -63 5 -3 1
-14 -9 -24 -21 -23 -12 -25 11 -2 14 13 20 14 34 5 9 -7 29 -18 45 -26 16 -7
25 -15 20 -18 -5 -3 -4 -4 3 -2 6 1 18 -3 27 -9 13 -10 14 -18 6 -47 -14 -47
-13 -55 5 -40 8 7 13 16 10 20 -3 4 2 10 10 14 8 3 15 10 15 16 0 6 -5 8 -11
4 -7 -4 -9 0 -5 12 5 15 -4 24 -41 44 -25 13 -67 38 -92 54 -25 17 -68 40 -95
53 l-48 23 31 35 c17 20 31 41 31 48 0 7 7 25 15 41 18 33 16 39 -5 23z"/>
<path d="M2721 820 c-12 -19 -24 -46 -27 -60 -3 -14 -9 -33 -15 -42 -7 -14 -5
-18 6 -18 8 0 18 12 21 28 4 15 15 44 26 65 25 51 17 72 -11 27z"/>
<path d="M2983 838 c-21 -28 -24 -38 -9 -38 8 0 18 9 21 21 8 25 2 34 -12 17z"/>
<path d="M3507 843 c-20 -5 -57 -72 -57 -102 0 -11 -5 -23 -10 -26 -6 -4 -8
-11 -4 -16 9 -15 34 10 34 33 0 45 55 109 80 93 6 -3 10 -2 10 3 0 8 -27 25
-33 21 -1 -1 -10 -3 -20 -6z"/>
<path d="M2191 824 c0 -11 3 -14 6 -6 3 7 2 16 -1 19 -3 4 -6 -2 -5 -13z"/>
<path d="M3410 825 c0 -8 2 -15 4 -15 2 0 6 7 10 15 3 8 1 15 -4 15 -6 0 -10
-7 -10 -15z"/>
<path d="M920 821 c0 -5 7 -12 16 -15 14 -5 15 -4 4 9 -14 17 -20 19 -20 6z"/>
<path d="M1787 809 c4 -13 8 -18 11 -10 2 7 -1 18 -6 23 -8 8 -9 4 -5 -13z"/>
<path d="M3286 821 c-3 -5 -14 -7 -24 -4 -14 3 -22 -5 -35 -37 -15 -38 -15
-41 1 -38 9 2 19 14 22 28 4 16 14 26 28 28 12 2 22 10 22 18 0 16 -6 18 -14
5z"/>
<path d="M610 805 c0 -8 2 -15 4 -15 2 0 6 7 10 15 3 8 1 15 -4 15 -6 0 -10
-7 -10 -15z"/>
<path d="M2900 768 c0 -29 -23 -58 -46 -58 -8 0 -14 -5 -14 -11 0 -16 52 -2
68 18 14 20 15 42 2 63 -8 12 -10 9 -10 -12z"/>
<path d="M933 757 c-8 -17 -8 -24 0 -24 7 0 13 11 13 24 2 29 0 29 -13 0z"/>
<path d="M1946 745 c-17 -22 -35 -35 -50 -35 -27 0 -53 -25 -36 -35 5 -3 10
-1 10 4 0 6 10 11 23 11 43 0 66 4 62 11 -3 3 9 18 25 32 19 17 30 22 34 14 2
-7 5 -2 5 11 1 36 -41 29 -73 -13z"/>
<path d="M887 745 c-3 -11 -15 -35 -27 -52 -12 -18 -20 -33 -17 -33 10 0 58
82 54 93 -2 6 -6 3 -10 -8z"/>
<path d="M1875 750 c3 -5 11 -10 16 -10 6 0 7 5 4 10 -3 6 -11 10 -16 10 -6 0
-7 -4 -4 -10z"/>
<path d="M2159 738 c-11 -16 -28 -22 -62 -24 -25 -2 -55 -8 -66 -13 -24 -13
-44 -14 -36 -2 3 5 1 13 -5 16 -6 4 -10 3 -9 -2 4 -22 -3 -31 -26 -37 -14 -4
-47 -20 -74 -36 -26 -17 -53 -30 -58 -30 -5 0 -34 -13 -63 -29 -30 -16 -58
-27 -64 -24 -5 3 -6 2 -3 -4 8 -13 -37 -38 -52 -28 -7 3 -10 1 -9 -6 2 -8 -14
-19 -37 -27 -22 -7 -48 -24 -59 -38 l-18 -26 31 17 c18 9 29 20 26 25 -3 6 0
8 7 5 7 -3 49 15 93 41 116 66 232 124 295 146 65 23 170 34 170 18 0 -6 5 -8
12 -4 8 5 9 2 5 -10 -4 -11 -3 -15 4 -11 6 4 8 14 4 23 -3 8 -1 18 4 21 13 8
26 61 15 61 -5 -1 -16 -10 -25 -22z"/>
<path d="M3372 725 c-19 -14 -28 -26 -22 -30 15 -9 57 20 57 39 0 9 -1 16 -1
15 -1 0 -16 -11 -34 -24z"/>
<path d="M3720 730 c-14 -11 -33 -20 -42 -20 -10 0 -18 -4 -18 -10 0 -5 7 -10
15 -10 26 0 75 30 75 45 0 19 0 19 -30 -5z"/>
<path d="M3008 721 c-44 -19 -51 -36 -10 -26 27 6 60 31 51 38 -2 2 -21 -3
-41 -12z"/>
<path d="M3290 725 c-8 -10 -31 -15 -66 -15 -30 0 -54 -4 -54 -10 0 -17 116
-12 134 6 9 8 14 20 11 25 -8 12 -10 12 -25 -6z"/>
<path d="M3585 710 c-11 -13 -14 -20 -6 -20 18 0 51 19 51 30 0 17 -26 11 -45
-10z"/>
<path d="M2771 711 c-8 -5 -9 -11 -3 -15 14 -8 43 4 36 15 -7 11 -15 11 -33 0z"/>
<path d="M936 693 c-6 -14 -5 -15 5 -6 7 7 10 15 7 18 -3 3 -9 -2 -12 -12z"/>
<path d="M1493 703 c20 -2 54 -2 75 0 20 2 3 4 -38 4 -41 0 -58 -2 -37 -4z"/>
<path d="M1404 676 c-3 -13 -4 -37 -1 -52 3 -22 4 -19 6 13 1 28 7 45 19 52
16 10 16 10 0 11 -10 0 -20 -10 -24 -24z"/>
<path d="M1831 656 c-9 -10 -8 -15 2 -19 8 -3 13 3 13 14 0 23 0 23 -15 5z"/>
<path d="M841 640 c-1 -9 13 -31 30 -50 l31 -35 -24 35 c-14 19 -27 42 -31 50
-5 13 -6 13 -6 0z"/>
<path d="M1921 621 c-7 -5 -9 -11 -5 -14 5 -3 15 1 22 9 14 16 5 18 -17 5z"/>
<path d="M1996 622 c-3 -4 4 -9 15 -9 23 -2 25 3 4 10 -8 4 -16 3 -19 -1z"/>
<path d="M2632 601 c7 -12 18 -17 27 -13 14 6 14 7 -1 10 -10 2 -18 8 -18 13
0 5 -5 9 -10 9 -6 0 -6 -7 2 -19z"/>
<path d="M3282 583 c-26 -5 -37 -28 -47 -98 -11 -67 10 -51 25 20 7 33 17 55
24 55 8 0 19 7 26 15 7 8 9 14 4 14 -5 -1 -19 -4 -32 -6z"/>
<path d="M3393 580 c-21 -8 -27 -24 -47 -112 -4 -16 -2 -28 3 -28 14 0 18 10
25 53 8 49 23 77 41 77 8 0 15 5 15 10 0 12 -7 12 -37 0z"/>
<path d="M1900 570 c8 -5 20 -10 25 -10 6 0 3 5 -5 10 -8 5 -19 10 -25 10 -5
0 -3 -5 5 -10z"/>
<path d="M2410 570 c8 -5 20 -10 25 -10 6 0 3 5 -5 10 -8 5 -19 10 -25 10 -5
0 -3 -5 5 -10z"/>
<path d="M2710 570 c-13 -8 -13 -10 2 -10 9 0 25 -3 35 -7 17 -6 17 -6 1 10
-19 20 -18 20 -38 7z"/>
<path d="M1642 561 c-11 -7 -10 -9 3 -14 11 -5 14 -3 9 5 -5 8 -2 9 10 5 10
-4 15 -3 11 3 -7 12 -16 12 -33 1z"/>
<path d="M2302 553 c-14 -26 -26 -130 -14 -118 10 10 33 127 27 133 -2 2 -8
-5 -13 -15z"/>
<path d="M1390 540 c0 -8 -10 -25 -22 -38 l-23 -25 23 14 c23 14 39 46 28 56
-3 4 -6 0 -6 -7z"/>
<path d="M1860 536 c0 -2 7 -7 16 -10 8 -3 12 -2 9 4 -6 10 -25 14 -25 6z"/>
<path d="M2360 521 c-5 -11 -10 -35 -9 -53 l1 -33 10 35 c5 19 17 43 25 53 15
15 15 17 0 17 -9 0 -21 -9 -27 -19z"/>
<path d="M2098 523 c7 -3 16 -2 19 1 4 3 -2 6 -13 5 -11 0 -14 -3 -6 -6z"/>
<path d="M2440 494 c0 -32 -36 -84 -57 -84 -9 0 -14 -2 -11 -5 13 -13 56 8 71
35 19 31 23 80 7 80 -5 0 -10 -12 -10 -26z"/>
<path d="M2632 503 c-6 -10 -13 -40 -18 -68 -5 -36 -15 -57 -37 -77 -35 -33
-23 -37 15 -5 22 17 31 38 42 92 15 73 14 90 -2 58z"/>
<path d="M2933 506 c-13 -6 -25 -17 -29 -26 -15 -38 -22 -70 -14 -70 5 0 11 9
15 19 6 21 35 37 35 20 0 -6 9 -9 20 -6 10 3 21 0 24 -7 2 -6 5 -3 5 6 1 9 -8
23 -20 31 -13 9 -16 17 -10 22 12 7 15 26 4 24 -5 -1 -18 -6 -30 -13z"/>
<path d="M2997 514 c-3 -4 1 -20 11 -36 17 -29 17 -30 -12 -53 l-28 -22 28
-10 c16 -6 47 -28 69 -49 25 -25 49 -39 67 -40 15 -1 25 3 22 8 -3 4 -9 6 -13
4 -4 -3 -13 0 -21 6 -12 8 -11 9 3 4 12 -4 17 -2 15 6 -3 7 -9 13 -14 13 -20
2 -55 17 -50 22 3 4 1 12 -5 20 -9 10 -15 10 -25 2 -10 -8 -14 -8 -14 0 0 6 5
11 11 11 5 0 7 5 3 11 -14 23 39 -14 89 -62 28 -27 53 -47 55 -44 8 8 -72 91
-107 111 -40 22 -72 65 -53 72 6 2 12 11 12 20 -1 14 -2 14 -12 -3 -10 -18
-12 -18 -17 -2 -4 10 -10 15 -14 11z"/>
<path d="M3190 489 c0 -22 -9 -40 -30 -59 -24 -22 -27 -29 -14 -34 8 -3 13 -2
10 3 -3 5 5 11 17 15 13 3 24 11 25 18 0 7 4 30 8 51 4 25 3 37 -5 37 -6 0
-11 -14 -11 -31z"/>
<path d="M449 489 c-23 -19 -23 -20 -2 -10 12 6 25 16 28 21 10 16 -1 12 -26
-11z"/>
<path d="M2568 485 c2 -14 6 -25 8 -25 2 0 4 11 4 25 0 14 -4 25 -9 25 -4 0
-6 -11 -3 -25z"/>
<path d="M2717 489 c-3 -11 -15 -23 -26 -26 -20 -5 -30 -23 -12 -23 16 0 61
41 61 56 0 21 -17 17 -23 -7z"/>
<path d="M2776 491 c-10 -11 -16 -27 -14 -37 2 -12 8 -6 20 20 20 41 19 44 -6
17z"/>
<path d="M3133 488 c-6 -13 -7 -32 -2 -43 4 -11 8 -18 9 -15 1 3 3 12 5 20 2
8 7 25 11 38 3 12 2 22 -3 22 -5 0 -14 -10 -20 -22z"/>
<path d="M3290 484 c-15 -37 -12 -52 6 -29 31 40 36 55 19 55 -8 0 -20 -12
-25 -26z"/>
<path d="M990 493 c0 -6 8 -17 18 -24 16 -13 16 -13 2 6 -8 11 -16 22 -17 24
-2 2 -3 0 -3 -6z"/>
<path d="M1056 487 c3 -10 9 -15 12 -12 3 3 0 11 -7 18 -10 9 -11 8 -5 -6z"/>
<path d="M2675 490 c-3 -5 -1 -10 4 -10 6 0 11 5 11 10 0 6 -2 10 -4 10 -3 0
-8 -4 -11 -10z"/>
<path d="M389 449 l-24 -20 28 17 c15 9 27 18 27 20 0 8 -8 4 -31 -17z"/>
<path d="M1237 378 c-38 -38 -67 -72 -65 -74 3 -2 35 28 73 66 37 39 66 72 64
74 -2 2 -35 -27 -72 -66z"/>
<path d="M1753 430 c-21 -33 7 -42 47 -14 19 13 31 24 26 24 -4 0 -20 -9 -36
-20 -29 -21 -48 -16 -28 7 6 7 9 15 7 18 -3 2 -10 -4 -16 -15z"/>
<path d="M3355 420 c-17 -18 -17 -20 -1 -20 9 0 19 7 23 15 9 25 -2 27 -22 5z"/>
<path d="M2770 420 c-20 -12 -5 -24 16 -12 9 5 12 12 7 15 -5 3 -15 2 -23 -3z"/>
<path d="M2830 420 c-8 -5 -11 -12 -7 -16 4 -4 13 -2 19 4 15 15 7 24 -12 12z"/>
<path d="M3230 415 c-10 -12 -10 -15 3 -15 19 0 31 16 18 24 -5 3 -14 -1 -21
-9z"/>
<path d="M3289 414 c-12 -14 -11 -16 5 -13 11 2 21 10 24 17 5 17 -13 15 -29
-4z"/>
<path d="M2685 410 c-8 -13 5 -13 25 0 13 8 13 10 -2 10 -9 0 -20 -4 -23 -10z"/>
<path d="M3746 397 c-26 -26 -37 -87 -16 -87 6 0 10 11 10 24 0 13 10 35 21
50 28 36 17 45 -15 13z"/>
<path d="M2263 403 c9 -2 23 -2 30 0 6 3 -1 5 -18 5 -16 0 -22 -2 -12 -5z"/>
<path d="M255 338 l-40 -43 43 40 c23 21 42 40 42 42 0 8 -9 0 -45 -39z"/>
<path d="M982 360 c0 -14 2 -19 5 -12 2 6 2 18 0 25 -3 6 -5 1 -5 -13z"/>
<path d="M3090 366 c0 -2 7 -7 16 -10 8 -3 12 -2 9 4 -6 10 -25 14 -25 6z"/>
<path d="M3771 344 c0 -11 3 -14 6 -6 3 7 2 16 -1 19 -3 4 -6 -2 -5 -13z"/>
<path d="M3749 286 c-2 -2 -195 -7 -429 -10 -693 -9 -717 -10 -422 -16 257 -5
275 -6 288 -25 12 -17 12 -20 -2 -28 -14 -8 -13 -10 3 -22 10 -7 21 -11 25 -9
4 3 5 -2 2 -10 -4 -11 0 -13 15 -9 13 3 21 1 21 -6 0 -7 -4 -10 -9 -6 -5 3
-12 1 -16 -5 -3 -5 -3 -10 2 -10 4 0 17 -18 27 -40 11 -22 26 -40 35 -40 14 0
14 -2 1 -10 -10 -6 -11 -10 -2 -10 23 0 27 2 24 14 -3 8 0 8 8 -1 7 -6 9 -16
6 -22 -5 -8 -281 -11 -922 -11 l-915 0 51 72 c70 100 141 178 162 178 9 0 20
5 23 11 5 7 -8 9 -37 7 -30 -2 -42 -7 -40 -17 2 -7 -17 -39 -41 -70 -24 -31
-63 -84 -86 -118 l-42 -63 -197 0 c-120 0 -191 4 -183 9 16 11 26 84 14 105
-5 9 -8 -2 -8 -29 0 -28 -6 -50 -19 -64 -19 -21 -26 -21 -348 -21 -261 0 -328
3 -322 13 6 9 5 9 -7 0 -11 -9 -76 -13 -215 -16 -109 -1 654 -2 1696 -2 1042
0 1800 1 1684 2 -169 3 -214 6 -224 18 -10 12 -120 224 -120 231 0 2 112 3
249 3 245 0 301 4 301 22 0 9 -23 13 -31 5z m-530 -56 c11 -24 11 -24 -3 -6
-9 11 -16 24 -16 30 0 12 5 7 19 -24z m55 -95 c3 -9 0 -15 -9 -15 -9 0 -12 6
-9 15 4 8 7 15 9 15 2 0 5 -7 9 -15z"/>
<path d="M65 270 c-3 -5 -1 -10 4 -10 6 0 11 5 11 10 0 6 -2 10 -4 10 -3 0 -8
-4 -11 -10z"/>
<path d="M100 270 c0 -5 5 -10 10 -10 6 0 10 5 10 10 0 6 -4 10 -10 10 -5 0
-10 -4 -10 -10z"/>
<path d="M170 269 c0 -6 -19 -34 -43 -62 -64 -76 -131 -176 -124 -184 4 -3 7
-2 7 4 0 23 162 223 181 223 4 0 10 -15 12 -32 3 -25 4 -22 5 15 2 41 -1 47
-18 47 -11 0 -20 -5 -20 -11z"/>
<path d="M255 270 c-2 -4 28 -8 67 -8 39 -1 69 0 67 2 -7 8 -130 13 -134 6z"/>
<path d="M690 270 l-295 -5 298 -3 c163 -1 299 -2 302 -2 9 0 7 14 -2 15 -4 0
-141 -2 -303 -5z"/>
<path d="M1095 270 c-16 -4 -22 -8 -12 -9 17 -1 17 -2 0 -28 l-17 -28 30 28
c17 15 35 27 42 27 7 0 12 5 12 10 0 11 -11 11 -55 0z"/>
<path d="M1164 268 c-3 -4 6 -8 20 -8 14 0 26 4 26 9 0 11 -39 10 -46 -1z"/>
<path d="M1225 270 c-3 -5 -1 -10 4 -10 6 0 11 5 11 10 0 6 -2 10 -4 10 -3 0
-8 -4 -11 -10z"/>
<path d="M1325 270 l-40 -7 43 -2 c23 0 42 4 42 9 0 6 -1 9 -2 9 -2 -1 -21 -5
-43 -9z"/>
<path d="M1390 255 c-5 -13 -14 -26 -19 -30 -6 -3 -11 -11 -11 -18 0 -6 12 4
26 21 27 32 28 32 123 33 116 1 109 6 -17 12 -90 4 -94 4 -102 -18z"/>
<path d="M1740 268 c0 -5 183 -8 407 -8 223 0 404 2 401 5 -8 8 -808 11 -808
3z"/>
<path d="M18 263 c7 -3 16 -2 19 1 4 3 -2 6 -13 5 -11 0 -14 -3 -6 -6z"/>
<path d="M138 263 c7 -3 16 -2 19 1 4 3 -2 6 -13 5 -11 0 -14 -3 -6 -6z"/>
<path d="M1028 263 c6 -2 18 -2 25 0 6 3 1 5 -13 5 -14 0 -19 -2 -12 -5z"/>
<path d="M1258 263 c7 -3 16 -2 19 1 4 3 -2 6 -13 5 -11 0 -14 -3 -6 -6z"/>
<path d="M3160 231 c0 -6 5 -13 10 -16 6 -3 10 1 10 9 0 9 -4 16 -10 16 -5 0
-10 -4 -10 -9z"/>
<path d="M202 140 c0 -19 2 -27 5 -17 2 9 2 25 0 35 -3 9 -5 1 -5 -18z"/>
<path d="M1289 149 c-8 -16 -8 -24 2 -33 9 -8 10 -8 5 1 -4 7 -2 22 4 33 6 11
8 20 6 20 -3 0 -10 -9 -17 -21z"/>
<path d="M3018 134 c-38 -20 -36 -28 2 -9 17 9 30 18 30 20 0 7 -1 6 -32 -11z"/>
<path d="M1219 113 c-13 -16 -12 -17 4 -4 16 13 21 21 13 21 -2 0 -10 -8 -17
-17z"/>
<path d="M2948 94 c-38 -20 -36 -28 2 -9 17 9 30 18 30 20 0 7 -1 6 -32 -11z"/>
<path d="M1155 60 c3 -5 8 -10 11 -10 2 0 4 5 4 10 0 6 -5 10 -11 10 -5 0 -7
-4 -4 -10z"/>
</g>
</svg>
